<svg width="18" height="18" viewBox="0 0 18 18" fill="none" xmlns="http://www.w3.org/2000/svg">
<path d="M15.1719 2.83371C14.3735 2.03264 13.426 1.39565 12.3828 0.958705C11.3129 0.509173 10.1637 0.278847 9.00315 0.281362H8.96331C6.62659 0.290737 4.43987 1.2048 2.80393 2.85714C1.16565 4.50949 0.27268 6.70324 0.282055 9.03996C0.289087 10.4532 0.640649 11.8571 1.30159 13.097L1.40706 13.2939V16.5939H4.70706L4.90393 16.6993C6.14377 17.3603 7.54768 17.7118 8.96096 17.7189H9.00081C11.3211 17.7189 13.5008 16.8235 15.1438 15.197C16.7938 13.561 17.7102 11.3743 17.7242 9.03996C17.7289 7.85402 17.5016 6.70558 17.0469 5.62277C16.6097 4.57975 15.9727 3.63229 15.1719 2.83371ZM4.31331 10.1251C4.01891 10.1191 3.73861 9.99793 3.53253 9.78761C3.32646 9.57729 3.21104 9.29456 3.21104 9.00011C3.21104 8.70566 3.32646 8.42294 3.53253 8.21261C3.73861 8.00229 4.01891 7.88112 4.31331 7.87511C4.6077 7.88112 4.88801 8.00229 5.09408 8.21261C5.30015 8.42294 5.41558 8.70566 5.41558 9.00011C5.41558 9.29456 5.30015 9.57729 5.09408 9.78761C4.88801 9.99793 4.6077 10.1191 4.31331 10.1251ZM9.00081 10.1251C8.70641 10.1191 8.42611 9.99793 8.22003 9.78761C8.01396 9.57729 7.89854 9.29456 7.89854 9.00011C7.89854 8.70566 8.01396 8.42294 8.22003 8.21261C8.42611 8.00229 8.70641 7.88112 9.00081 7.87511C9.2952 7.88112 9.57551 8.00229 9.78158 8.21261C9.98765 8.42294 10.1031 8.70566 10.1031 9.00011C10.1031 9.29456 9.98765 9.57729 9.78158 9.78761C9.57551 9.99793 9.2952 10.1191 9.00081 10.1251ZM13.6883 10.1251C13.3939 10.1191 13.1136 9.99793 12.9075 9.78761C12.7015 9.57729 12.586 9.29456 12.586 9.00011C12.586 8.70566 12.7015 8.42294 12.9075 8.21261C13.1136 8.00229 13.3939 7.88112 13.6883 7.87511C13.9827 7.88112 14.263 8.00229 14.4691 8.21261C14.6752 8.42294 14.7906 8.70566 14.7906 9.00011C14.7906 9.29456 14.6752 9.57729 14.4691 9.78761C14.263 9.99793 13.9827 10.1191 13.6883 10.1251Z" fill="#E6F7FF"/>
</svg>
